<svg width="694" height="144" viewBox="0 0 694 144" fill="none" xmlns="http://www.w3.org/2000/svg">
<path d="M44.1498 113.697C65.2022 113.697 75.9088 100.993 80.6005 90.3258L59.6684 80.7378C57.6233 86.97 51.3678 92.3633 44.1498 92.3633C32.4808 92.3633 24.6613 83.4944 24.6613 72.3483C24.6613 61.2022 32.4808 52.3333 44.1498 52.3333C51.3678 52.3333 57.6233 57.7266 59.6684 63.9588L80.6005 54.2509C75.7885 43.2247 65.2022 31 44.1498 31C19.0073 31 0 47.6592 0 72.3483C0 96.9176 19.0073 113.697 44.1498 113.697Z" fill="#0D0D0D"/>
<path d="M133.725 112.258V53.412H155.138V32.3184H87.8905V53.412H109.424V112.258H133.725Z" fill="#0D0D0D"/>
<path d="M186.623 113.697C202.142 113.697 211.164 106.146 216.217 96.1985L248.337 32.3184H221.149L206.232 64.7978L191.435 32.3184H164.248L192.518 88.5281C190.834 91.0449 188.668 92.3633 184.458 92.3633C180.368 92.3633 176.759 90.5655 174.112 88.7678L164.248 107.225C170.503 112.019 178.804 113.697 186.623 113.697Z" fill="#0D0D0D"/>
<path d="M239.758 127H264.059V112.258H303.878V127H328.178V91.1648H321.201V32.3184H258.525L253.593 72.588C251.668 87.809 246.976 91.0449 239.758 92.3633V127ZM277.773 74.3858L280.419 53.412H296.9V91.1648H269.953C274.044 86.97 276.931 81.4569 277.773 74.3858Z" fill="#0D0D0D"/>
<path d="M363.536 112.258L393.129 66.9551V112.258H417.43V32.3184H392.407L364.498 74.985V32.3184H340.198V112.258H363.536Z" fill="#0D0D0D"/>
<path d="M457.85 112.258L468.918 87.0899H477.7V112.258H502V32.3184H459.173C440.407 32.3184 430.302 44.7828 430.302 59.764C430.302 73.5468 438.362 80.8577 444.738 83.9738L430.181 112.258H457.85ZM462.903 65.9963C458.813 65.9963 454.963 64.0787 454.963 59.6442C454.963 55.3296 458.813 53.412 462.903 53.412H477.7V65.9963H462.903Z" fill="#0D0D0D"/>
<path fill-rule="evenodd" clip-rule="evenodd" d="M555.272 5.27209C550 10.5442 550 19.0294 550 36V108C550 124.971 550 133.456 555.272 138.728C560.544 144 569.029 144 586 144H658C674.971 144 683.456 144 688.728 138.728C694 133.456 694 124.971 694 108V36C694 19.0294 694 10.5442 688.728 5.27209C683.456 0 674.971 0 658 0H586C569.029 0 560.544 0 555.272 5.27209ZM631.8 45.4626H646.709V61.7712H631.8V88.3829L631.803 88.4822C631.968 95.6097 632.116 101.973 639.9 101.973H647.57L648 118.282C648 118.282 642.514 121 634.5 121C614.649 121 607.5 114.023 607.5 93.8192V61.7712H594V45.4626H607.5V24H631.8V45.4626Z" fill="#E31717"/>
</svg>
