<svg width="128" height="83" viewBox="0 0 128 83" fill="none" xmlns="http://www.w3.org/2000/svg">
<g id="&#208;&#155;&#208;&#190;&#208;&#179;&#208;&#190;&#209;&#130;&#208;&#184;&#208;&#191;">
<g id="Vector">
<path d="M39.5906 36.7889C43.1081 36.0944 46.3392 34.3803 48.8752 31.8632L36.053 19.1367L48.8752 6.41018C46.3392 3.89311 43.1081 2.17896 39.5906 1.48451C36.0731 0.790049 32.4271 1.14647 29.1137 2.5087C25.8002 3.87093 22.9682 6.17778 20.9757 9.13754C18.9832 12.0973 17.9197 15.577 17.9197 19.1367C17.9197 22.6964 18.9832 26.1761 20.9757 29.1359C22.9682 32.0956 25.8002 34.4025 29.1137 35.7647C32.4271 37.1269 36.0731 37.4834 39.5906 36.7889Z" fill="#D02D22"/>
<path d="M84.604 81.5162C88.1215 80.8217 91.3525 79.1076 93.8885 76.5905L81.0663 63.864L93.8885 51.1375C91.3525 48.6204 88.1215 46.9062 84.604 46.2118C81.0864 45.5173 77.4404 45.8737 74.127 47.236C70.8136 48.5982 67.9815 50.905 65.989 53.8648C63.9965 56.8246 62.933 60.3043 62.933 63.864C62.933 67.4237 63.9965 70.9034 65.989 73.8631C67.9815 76.8229 70.8136 79.1298 74.127 80.492C77.4404 81.8542 81.0864 82.2106 84.604 81.5162Z" fill="#D02D22"/>
<path d="M1.70632 1.99063L13.8663 1.99063V3.26855L1.70632 3.26855L1.70632 1.99063Z" fill="#FFC500"/>
<path d="M12.373 3.26855L13.8663 3.26855V7.52829H12.373V3.26855Z" fill="#FFC500"/>
<path d="M6.61298 6.25037L12.373 6.25037V7.52829L6.61298 7.52829V6.25037Z" fill="#FFC500"/>
<path d="M1.70632 3.26855H3.19965L3.19965 36.4945H1.70632L1.70632 3.26855Z" fill="#FFC500"/>
<path d="M3.19965 35.2166H13.8663V36.4945H3.19965V35.2166Z" fill="#FFC500"/>
<path d="M12.373 30.9569H13.8663V35.2166H12.373V30.9569Z" fill="#FFC500"/>
<path d="M6.61298 30.9569H12.373V32.2348H6.61298V30.9569Z" fill="#FFC500"/>
<path d="M6.61298 7.52829H8.10632L8.10632 30.9569H6.61298L6.61298 7.52829Z" fill="#FFC500"/>
<path d="M9.17298 16.2608H13.8663L13.8663 17.7517H9.17298L9.17298 16.2608Z" fill="#FFC500"/>
<path d="M9.17298 17.7517H10.6663V22.4374H9.17298V17.7517Z" fill="#FFC500"/>
<path d="M12.373 17.7517H13.8663V22.4374H12.373V17.7517Z" fill="#FFC500"/>
<path d="M10.6663 20.9465H12.373V22.4374H10.6663V20.9465Z" fill="#FFC500"/>
<path d="M46.7197 46.7179H58.8797V47.9958H46.7197V46.7179Z" fill="#FFC500"/>
<path d="M57.3863 47.9958H58.8797V52.2556H57.3863V47.9958Z" fill="#FFC500"/>
<path d="M51.6263 50.9776H57.3863V52.2556H51.6263V50.9776Z" fill="#FFC500"/>
<path d="M46.7197 47.9958H48.213L48.213 81.2218H46.7197L46.7197 47.9958Z" fill="#FFC500"/>
<path d="M48.213 79.9439H58.8797V81.2218H48.213V79.9439Z" fill="#FFC500"/>
<path d="M57.3863 75.6841H58.8797V79.9439H57.3863V75.6841Z" fill="#FFC500"/>
<path d="M51.6263 75.6841H57.3863V76.9621H51.6263V75.6841Z" fill="#FFC500"/>
<path d="M51.6263 52.2556H53.1197L53.1197 75.6841H51.6263L51.6263 52.2556Z" fill="#FFC500"/>
<path d="M54.1863 60.988H58.8797V62.4789H54.1863V60.988Z" fill="#FFC500"/>
<path d="M54.1863 62.4789H55.6797L55.6797 67.1646H54.1863L54.1863 62.4789Z" fill="#FFC500"/>
<path d="M57.3863 62.4789H58.8797L58.8797 67.1646H57.3863L57.3863 62.4789Z" fill="#FFC500"/>
<path d="M55.6797 65.6737H57.3863V67.1646H55.6797V65.6737Z" fill="#FFC500"/>
<path d="M52.9063 1.99063L60.5863 1.99063V10.0841H52.9063V1.99063Z" fill="#FFC500"/>
<path d="M74.6663 1.99063L82.3463 1.99063V10.0841L74.6663 10.0841V1.99063Z" fill="#FFC500"/>
<path d="M62.5063 1.99063L72.9597 1.99063V36.4945L62.5063 36.4945V1.99063Z" fill="#FFC500"/>
<path d="M97.9197 46.7179H105.6V54.8114H97.9197V46.7179Z" fill="#FFC500"/>
<path d="M119.68 46.7179H127.36V54.8114H119.68V46.7179Z" fill="#FFC500"/>
<path d="M107.52 46.7179H117.973V81.2218H107.52V46.7179Z" fill="#FFC500"/>
<path d="M87.0397 1.99063L101.12 1.99063V36.4945H87.0397V1.99063Z" fill="#FFC500"/>
<path d="M103.253 9.16896V36.3447C106.153 35.9137 108.858 34.5654 110.956 32.4708C113.537 29.8945 114.986 26.4003 114.986 22.7568C114.986 19.1134 113.537 15.6192 110.956 13.0429C108.858 10.9483 106.153 9.6 103.253 9.16896Z" fill="#FFC500"/>
<path d="M14.5063 46.7179H28.7997V81.2218H14.5063L14.5063 46.7179Z" fill="#FFC500"/>
<path d="M30.933 46.8677V74.0435C33.8326 73.6124 36.538 72.2641 38.6359 70.1696C41.2167 67.5932 42.6663 64.099 42.6663 60.4556C42.6663 56.8121 41.2167 53.3179 38.6359 50.7416C36.538 48.6471 33.8326 47.2987 30.933 46.8677Z" fill="#FFC500"/>
<path d="M12.373 74.0435L12.373 46.8677C9.4734 47.2987 6.76798 48.6471 4.67007 50.7416C2.08923 53.3179 0.639648 56.8121 0.639648 60.4556C0.639648 64.099 2.08923 67.5932 4.67007 70.1696C6.76798 72.2641 9.4734 73.6124 12.373 74.0435Z" fill="#FFC500"/>
<path fill-rule="evenodd" clip-rule="evenodd" d="M126.506 1.99063L119.04 1.99063V26.9101H126.506V1.99063ZM125.226 25.6322V3.26855L120.32 3.26855V25.6322H125.226Z" fill="#FFC500"/>
<path fill-rule="evenodd" clip-rule="evenodd" d="M126.506 32.3413C126.506 34.3998 124.835 36.0686 122.773 36.0686C120.711 36.0686 119.04 34.3998 119.04 32.3413C119.04 30.2828 120.711 28.614 122.773 28.614C124.835 28.614 126.506 30.2828 126.506 32.3413ZM125.44 32.3413C125.44 33.8116 124.246 35.0036 122.773 35.0036C121.3 35.0036 120.106 33.8116 120.106 32.3413C120.106 30.8709 121.3 29.6789 122.773 29.6789C124.246 29.6789 125.44 30.8709 125.44 32.3413Z" fill="#FFC500"/>
</g>
</g>
</svg>
