<svg width="206" height="169" viewBox="0 0 206 169" fill="none" xmlns="http://www.w3.org/2000/svg">
<g clip-path="url(#clip0_275_9380)">
<g clip-path="url(#clip1_275_9380)">
<rect x="5.22266" y="53.8477" width="149.273" height="78.9012" rx="39.4506" transform="rotate(-18.1013 5.22266 53.8477)" fill="#E03A7B"/>
<path d="M47.3543 83.6869L44.6207 84.0195C41.0311 84.401 37.723 83.5687 36.5245 79.9021C35.2091 75.8778 38.6512 72.476 42.5322 71.2074C46.7341 69.8339 50.6065 70.7128 52.9241 74.9374L49.3349 76.1106C47.8744 73.7175 45.4423 73.6876 43.3413 74.3744C41.7072 74.9086 39.5288 76.4455 40.2206 78.5619C40.7663 80.2313 42.3522 80.6367 44.3075 80.3935L47.0702 80.0514C51.01 79.5554 55.0085 79.8321 56.4214 84.1545C57.8538 88.5365 54.3437 92.1255 50.1709 93.4895C45.1227 95.1396 40.8316 93.4738 38.8056 88.8569L42.4532 87.6646C44.0987 90.4261 46.4146 91.2859 49.3326 90.3321C51.8421 89.5118 53.4756 87.691 52.7935 85.6044C52.0627 83.3687 49.4944 83.4163 47.3543 83.6869Z" fill="white"/>
<path d="M72.8011 77.7116L76.3611 76.5479C77.0448 81.7026 74.6049 85.5026 69.7026 87.105C63.5164 89.1272 58.4656 85.829 56.244 79.0324C54.0223 72.2358 56.4029 66.6734 62.56 64.6609C67.258 63.1252 71.5005 64.7409 73.935 69.3233L70.3749 70.487C68.7391 67.7552 66.2288 66.8931 63.4566 67.7992C60.1009 68.8961 58.3614 72.5662 60.0666 77.7829C61.7815 83.0293 65.3335 85.1018 68.7184 83.9953C71.6073 83.051 73.1044 80.9119 72.8011 77.7116Z" fill="white"/>
<path d="M93.7836 78.8046L86.3373 71.1423C85.9969 71.2866 85.6176 71.4106 85.2382 71.5346L81.649 72.7078L84.621 81.7997L80.915 83.0111L73.8506 61.3991L80.5913 59.1958C86.8067 57.1641 90.4843 57.5457 92.0531 62.3451C92.9593 65.1174 92.26 67.4246 89.9067 69.2167L97.9564 77.4406L93.7836 78.8046ZM82.1105 62.0647L78.5504 63.2283L80.6649 69.697L84.3416 68.4952C87.5223 67.4555 89.1171 66.2083 88.2694 63.6149C87.3437 60.783 85.0285 61.1108 82.1105 62.0647Z" fill="white"/>
<path d="M92.0027 55.4657L95.7086 54.2543L99.879 67.0128C101.175 70.9775 102.908 72.8197 106.847 71.532C110.728 70.2634 111.028 67.6247 109.732 63.66L105.601 51.0208L109.307 49.8094L113.389 62.2996C115.621 69.126 114.017 72.6196 107.86 74.6322C101.791 76.6162 98.4045 75.0505 96.1244 68.0751L92.0027 55.4657Z" fill="white"/>
<path d="M132.152 66.263L128.387 67.4935L117.299 51.7503L123.018 69.2485L119.4 70.4313L112.335 48.8194L118.084 46.9403L128.852 62.4915L128.326 43.5924L134.075 41.7133L141.139 63.3252L137.521 64.508L131.801 47.0098L132.152 66.263Z" fill="white"/>
</g>
<rect x="133.909" y="64.3906" width="60.4058" height="65.4397" rx="18.8421" transform="rotate(5.20625 133.909 64.3906)" fill="#F1F1F1"/>
<path d="M152.303 97.1309L155.854 97.4544L155.53 101.005L151.979 100.682L152.303 97.1309ZM151.656 104.233L155.207 104.556L154.883 108.107L151.332 107.784L151.656 104.233ZM159.405 97.778L162.955 98.1015L162.632 101.652L159.081 101.329L159.405 97.778ZM158.757 104.88L162.308 105.203L161.985 108.754L158.434 108.431L158.757 104.88ZM166.506 98.4251L170.057 98.7486L169.734 102.3L166.183 101.976L166.506 98.4251ZM165.859 105.527L169.41 105.85L169.087 109.401L165.536 109.078L165.859 105.527Z" fill="#E03A7B"/>
<path d="M146.973 116.339L171.829 118.603C173.787 118.782 175.525 117.334 175.703 115.376L177.968 90.5196C178.147 88.5613 176.699 86.8236 174.741 86.6452L171.19 86.3216L171.514 82.7707L167.963 82.4472L167.639 85.9981L156.986 85.0274L157.31 81.4765L153.759 81.153L153.436 84.7039L149.885 84.3803C147.926 84.2019 146.189 85.6494 146.01 87.6077L143.745 112.464C143.567 114.422 145.014 116.16 146.973 116.339ZM174.094 93.747L172.154 115.053L147.296 112.788L149.237 91.4821L174.094 93.747Z" fill="#E03A7B"/>
</g>
<defs>
<clipPath id="clip0_275_9380">
<rect width="183.71" height="138.175" fill="white" transform="translate(0.447266 32.5527) rotate(-10.1938)"/>
</clipPath>
<clipPath id="clip1_275_9380">
<rect x="5.22266" y="53.8477" width="149.273" height="78.9012" rx="39.4506" transform="rotate(-18.1013 5.22266 53.8477)" fill="white"/>
</clipPath>
</defs>
</svg>
