<svg width="915" height="128" viewBox="0 0 915 128" fill="none" xmlns="http://www.w3.org/2000/svg">
<path d="M0 0V125.49H81.7479V103.081H26.8907V0H0Z" fill="#F90043"/>
<path d="M106.828 0V125.49H133.718V0H106.828Z" fill="#F90043"/>
<path d="M186.952 0H158.09L203.804 125.49H231.232L277.484 0H249.877C245.395 12.549 241.272 24.7395 237.328 36.3922C235.535 41.4118 233.921 46.6106 232.129 51.8095C230.336 57.1877 228.543 62.2073 226.93 67.2269C225.316 72.2465 223.882 77.0868 222.448 81.5686C221.014 86.0504 219.759 89.9944 218.683 93.2213H218.325C217.249 89.9944 215.994 86.0504 214.56 81.5686C213.126 77.0868 211.513 72.2465 209.899 67.2269C208.106 62.2073 206.493 57.1877 204.7 51.8095C202.907 46.6106 201.115 41.4118 199.501 36.3922C195.557 24.7395 191.255 12.549 186.952 0Z" fill="#F90043"/>
<path d="M301.926 125.49H388.335V103.261H328.458V72.0672H383.315V49.8375H328.458V22.2297H387.438V0H301.926V125.49Z" fill="#F90043"/>
<path d="M417.332 0V125.49H464.122C473.623 125.49 482.228 124.235 489.758 121.367C497.287 118.499 503.741 114.555 509.119 109.176C514.497 103.798 518.441 97.3445 521.309 89.4566C524.178 81.7479 525.612 72.7843 525.612 62.7451C525.612 52.7059 524.178 43.9216 521.309 36.0336C518.441 28.3249 514.497 21.8712 509.119 16.493C503.741 11.1149 497.287 7.17087 489.758 4.30252C482.228 1.43418 473.623 0 464.122 0H417.332ZM497.825 62.7451C497.825 68.8403 497.108 74.3978 495.673 79.4174C494.239 84.437 492.267 88.5602 489.399 92.1457C486.531 95.7311 483.124 98.5994 478.822 100.392C474.519 102.364 469.321 103.261 463.405 103.261H444.402V22.2297H463.405C469.321 22.2297 474.519 23.3053 478.822 25.098C483.124 27.07 486.531 29.7591 489.399 33.3445C492.267 36.93 494.239 41.2325 495.673 46.2521C497.108 51.2717 497.825 56.6499 497.825 62.7451Z" fill="#F90043"/>
<path d="M604.626 128C613.231 128 620.76 126.924 627.214 124.773C633.489 122.622 638.687 119.395 642.811 115.092C646.755 110.969 649.802 105.95 651.774 99.8543C653.746 93.7591 654.822 86.9468 654.822 79.2381V0H627.931V79.4174C627.931 87.1261 625.959 93.4006 622.194 98.4202C618.25 103.44 612.514 105.77 604.626 105.77C596.738 105.77 590.822 103.44 587.057 98.4202C583.113 93.4006 581.32 87.1261 581.32 79.4174V0H554.43V79.2381C554.43 86.9468 555.326 93.7591 557.298 99.8543C559.27 105.95 562.318 110.969 566.441 115.092C570.385 119.395 575.584 122.622 582.038 124.773C588.312 126.924 595.841 128 604.626 128Z" fill="#F90043"/>
<path d="M688.935 0V125.49H714.392V43.0252H714.93C716.543 45.8936 718.515 49.1204 720.846 52.8852C723.176 56.6499 725.686 60.7731 728.375 65.0756C731.064 69.3782 733.932 74.0392 736.801 78.7003C739.669 83.3614 742.538 88.0224 745.406 92.3249C751.86 102.902 758.672 114.017 765.843 125.49H793.809V0H768.353V82.465H767.815C766.201 79.9552 764.229 76.9076 762.078 73.1429C759.748 69.5574 757.238 65.4342 754.549 61.1317C751.86 56.8291 748.991 52.3473 746.123 47.6863C743.255 43.0252 740.386 38.3641 737.697 33.7031C731.064 23.1261 724.073 11.8319 716.902 0H688.935Z" fill="#F90043"/>
<path d="M828.501 125.49H914.91V103.261H855.033V72.0672H909.89V49.8375H855.033V22.2297H914.014V0H828.501V125.49Z" fill="#F90043"/>
</svg>
