<svg width="270" height="72" viewBox="0 0 270 72" fill="none" xmlns="http://www.w3.org/2000/svg">
<g clip-path="url(#clip0_1050_20)">
<path d="M172.701 26.3207L178.142 22.3057H159.927V46.3563H178.142V42.3413H165.131V36.2007H176.249V32.1857H165.131V26.3207H172.701Z" fill="black"/>
<path d="M146.167 31.674H139.859V26.3207H149.952L155.392 22.3057H134.654V46.3563H145.496C151.568 46.3563 155.077 43.6009 155.077 38.7987C155.077 34.1932 151.923 31.674 146.167 31.674ZM145.299 42.3413H139.859V35.689H145.299C148.611 35.689 150.149 36.7912 150.149 39.0349C150.149 41.2785 148.493 42.3413 145.299 42.3413Z" fill="black"/>
<path d="M192.886 22.3057H182.99V46.3563H188.194V39.5466H192.926C199.234 39.5466 203.176 36.2401 203.176 30.9261C203.176 25.6121 199.234 22.3057 192.886 22.3057ZM192.768 35.5316H188.155V26.3207H192.768C196.119 26.3207 197.933 27.9739 197.933 30.9261C197.933 33.8783 196.119 35.5316 192.768 35.5316Z" fill="black"/>
<path d="M125.744 41.1607C124.364 41.9085 122.826 42.3022 121.249 42.3022C116.558 42.3022 113.167 38.9563 113.167 34.3509C113.167 29.7454 116.558 26.3996 121.249 26.3996C122.945 26.3602 124.6 26.9113 125.98 27.8954L129.726 25.14L129.489 24.9038C127.321 22.975 124.403 21.991 121.092 21.991C117.504 21.991 114.231 23.2112 111.866 25.4155C109.5 27.6986 108.16 30.887 108.239 34.1934C108.199 37.5393 109.5 40.767 111.866 43.1288C114.35 45.4512 117.661 46.7502 121.052 46.6714C124.798 46.6714 128.07 45.3725 130.278 43.0107L126.927 40.5308L125.744 41.1607Z" fill="black"/>
<path d="M91.956 22.1479C92.9022 23.3682 93.6908 24.7065 94.361 26.1236L76.1462 39.5463L68.4976 34.744V28.9971L76.1068 33.76L91.956 22.1479Z" fill="black"/>
<path d="M60.73 34.3511C60.73 34.0755 60.73 33.8394 60.7695 33.5638L56.1566 33.3276C56.1566 33.6425 56.1172 33.9968 56.1172 34.3117C56.1172 39.8225 58.3645 44.8216 61.9917 48.443L65.264 45.1758C62.4648 42.4204 60.73 38.6023 60.73 34.3511Z" fill="url(#paint0_linear_1050_20)"/>
<path d="M76.1062 18.9992C76.3822 18.9992 76.6187 18.9992 76.8947 19.0386L77.1313 14.4332C76.8159 14.4332 76.461 14.3938 76.1456 14.3938C70.626 14.3938 65.6189 16.6375 61.9917 20.2589L65.2641 23.526C68.0239 20.7312 71.8876 18.9992 76.1062 18.9992Z" fill="url(#paint1_linear_1050_20)"/>
<path d="M76.1061 49.7018C75.8301 49.7018 75.5936 49.7018 75.3176 49.6624L75.0811 54.2679C75.3965 54.2679 75.7513 54.3072 76.0667 54.3072C81.5863 54.3072 86.5934 52.0635 90.2206 48.4422L86.9483 45.175C84.1885 48.0092 80.3641 49.7018 76.1061 49.7018Z" fill="url(#paint2_linear_1050_20)"/>
<path d="M84.7797 21.6757L88.6828 18.8022C85.2528 16.0468 80.8765 14.3542 76.106 14.3542V18.9597C79.3389 18.9991 82.3353 19.9831 84.7797 21.6757Z" fill="url(#paint3_linear_1050_20)"/>
<path d="M96.1348 34.3508C96.1348 33.1306 96.0165 31.9497 95.8194 30.7688L91.522 33.9572C91.522 34.0753 91.522 34.2327 91.522 34.3508C91.522 38.8775 89.5507 42.9319 86.436 45.7267L89.5507 49.1512C93.5721 45.5299 96.1348 40.2159 96.1348 34.3508Z" fill="black"/>
<path d="M76.1054 49.7018C71.5714 49.7018 67.5106 47.7337 64.7113 44.624L61.2812 47.7337C64.9479 51.7881 70.2309 54.3073 76.1054 54.3073V49.7018Z" fill="url(#paint4_linear_1050_20)"/>
<path d="M65.816 22.9749L62.7013 19.5503C58.6405 23.211 56.1172 28.4856 56.1172 34.3507H60.73C60.73 29.8633 62.7013 25.7696 65.816 22.9749Z" fill="url(#paint5_linear_1050_20)"/>
</g>
<defs>
<linearGradient id="paint0_linear_1050_20" x1="61.5145" y1="47.8826" x2="56.8066" y2="34.2959" gradientUnits="userSpaceOnUse">
<stop offset="0.891"/>
</linearGradient>
<linearGradient id="paint1_linear_1050_20" x1="63.3066" y1="19.7249" x2="75.2695" y2="15.1734" gradientUnits="userSpaceOnUse">
<stop offset="0.0592"/>
<stop offset="0.9234"/>
</linearGradient>
<linearGradient id="paint2_linear_1050_20" x1="74.8102" y1="50.3787" x2="89.0682" y2="47.1613" gradientUnits="userSpaceOnUse">
<stop offset="0.8693"/>
</linearGradient>
<linearGradient id="paint3_linear_1050_20" x1="75.1582" y1="17.3009" x2="87.0154" y2="20.9535" gradientUnits="userSpaceOnUse">
<stop offset="0.0566"/>
</linearGradient>
<linearGradient id="paint4_linear_1050_20" x1="62.4541" y1="48.4817" x2="75.1865" y2="53.2313" gradientUnits="userSpaceOnUse">
<stop offset="0.9829"/>
</linearGradient>
<linearGradient id="paint5_linear_1050_20" x1="59.6271" y1="34.907" x2="64.718" y2="21.6849" gradientUnits="userSpaceOnUse">
<stop offset="0.0698"/>
</linearGradient>
<clipPath id="clip0_1050_20">
<rect width="270" height="72" fill="white"/>
</clipPath>
</defs>
</svg>
