<svg width="351" height="103" viewBox="0 0 351 103" fill="none" xmlns="http://www.w3.org/2000/svg">
<g clip-path="url(#clip0_1621_176)">
<path d="M32.2701 54.5471C32.2701 55.5086 32.0428 56.3218 31.5839 56.9861C31.1293 57.6461 30.4475 58.1486 29.5428 58.4939C28.6381 58.8348 27.5103 59.0053 26.1599 59.0053C25.1634 59.0053 24.3067 58.9397 23.5944 58.8129C22.882 58.6862 22.1608 58.472 21.4353 58.1748V54.9449C22.2133 55.2947 23.048 55.583 23.9396 55.8102C24.8312 56.0375 25.6136 56.1513 26.291 56.1513C27.0517 56.1513 27.5934 56.0419 27.9213 55.8235C28.2535 55.605 28.415 55.3164 28.415 54.9626C28.415 54.7264 28.3497 54.5124 28.2185 54.3243C28.0829 54.132 27.7988 53.918 27.3663 53.6775C26.9291 53.4371 26.2475 53.1226 25.3164 52.7335C24.4204 52.3619 23.6862 51.986 23.1092 51.6058C22.5324 51.2256 22.104 50.7753 21.8287 50.2553C21.549 49.7352 21.4135 49.0753 21.4135 48.2711C21.4135 46.9643 21.9249 45.9766 22.9563 45.3166C23.9834 44.6523 25.3601 44.3201 27.0823 44.3201C27.9738 44.3201 28.8174 44.4119 29.6259 44.5911C30.4345 44.7703 31.2605 45.0544 32.1172 45.4478L30.9371 48.2624C30.2291 47.9565 29.5603 47.7029 28.9354 47.5107C28.306 47.3141 27.6679 47.2135 27.021 47.2135C26.4486 47.2135 26.0158 47.2879 25.7274 47.4408C25.4344 47.5894 25.2902 47.821 25.2902 48.1314C25.2902 48.3543 25.3647 48.5553 25.5176 48.7301C25.6662 48.9093 25.9545 49.1016 26.3873 49.3158C26.8157 49.5299 27.4493 49.8009 28.2886 50.1374C29.0971 50.4652 29.8008 50.8104 30.3996 51.1688C30.9983 51.5274 31.4573 51.973 31.7851 52.4974C32.1085 53.0263 32.2702 53.7081 32.2702 54.5472L32.2701 54.5471ZM43.2796 44.3199C44.8924 44.3199 46.1991 44.9405 47.1915 46.1819C48.188 47.4231 48.6817 49.2457 48.6817 51.6451C48.6817 53.2491 48.45 54.5998 47.978 55.6922C47.5104 56.785 46.8594 57.611 46.0332 58.1705C45.2027 58.7255 44.2543 59.0053 43.1792 59.0053C42.4843 59.0053 41.8943 58.9178 41.396 58.743C40.9022 58.5682 40.4782 58.3409 40.1285 58.0654C39.7788 57.7857 39.4772 57.4885 39.2192 57.174H39.014C39.0839 57.5149 39.1364 57.8602 39.1713 58.2186C39.2019 58.5769 39.2192 58.9222 39.2192 59.2632V65.0104H35.3163V44.5823H38.4895L39.0402 46.4442H39.2192C39.4772 46.0596 39.7876 45.7055 40.1545 45.3821C40.5218 45.0587 40.9633 44.8008 41.4789 44.6085C41.9991 44.4162 42.5979 44.3201 43.2796 44.3201V44.3199ZM42.0253 47.445C41.3435 47.445 40.8015 47.5804 40.3994 47.8602C39.9973 48.1354 39.7045 48.5508 39.5207 49.1058C39.3371 49.6566 39.2367 50.3557 39.2191 51.2037V51.6188C39.2191 52.5235 39.3065 53.2884 39.4814 53.9178C39.6562 54.5471 39.9536 55.0236 40.3688 55.3513C40.7797 55.6791 41.3522 55.8408 42.0777 55.8408C42.672 55.8408 43.166 55.6791 43.5505 55.3513C43.9308 55.0236 44.2193 54.5471 44.4115 53.9134C44.6038 53.2797 44.7 52.5062 44.7 51.5926C44.7 50.2203 44.4814 49.1845 44.0487 48.4896C43.6116 47.7902 42.9386 47.445 42.025 47.445H42.0253ZM65.0497 44.5823V58.743H62.0513L61.5268 56.9161H61.3216C61.0155 57.4057 60.6309 57.8033 60.1678 58.1093C59.7087 58.4152 59.2018 58.6425 58.6467 58.7867C58.0916 58.931 57.5148 59.0053 56.9159 59.0053C55.8933 59.0053 55.0016 58.826 54.2412 58.4677C53.4806 58.1093 52.8907 57.5497 52.4667 56.7894C52.0471 56.0288 51.833 55.0367 51.833 53.8216V44.5823H55.7402V52.8339C55.7402 53.8479 55.9239 54.6083 56.291 55.1241C56.6581 55.6356 57.2394 55.8933 58.0436 55.8933C58.8392 55.8933 59.4598 55.7141 59.9143 55.3559C60.3645 54.9973 60.6835 54.4729 60.8671 53.778C61.0507 53.0831 61.1424 52.231 61.1424 51.2299V44.5823H65.0497V44.5823ZM75.1764 55.8933C75.6003 55.8933 76.0155 55.8496 76.422 55.7667C76.8285 55.6793 77.2306 55.5744 77.6326 55.4433V58.3541C77.213 58.542 76.6973 58.695 76.0765 58.8218C75.4604 58.9442 74.7828 59.0054 74.0486 59.0054C73.1964 59.0054 72.4271 58.8699 71.7497 58.5945C71.0722 58.3192 70.5391 57.8428 70.15 57.1654C69.7611 56.4879 69.5644 55.5439 69.5644 54.3289V47.515H67.6982V45.8629L69.8485 44.5561L70.9762 41.5403H73.4719V44.5823H77.4797V47.5149H73.4719V54.2981C73.4719 54.8312 73.6292 55.2335 73.9395 55.4956C74.2499 55.7622 74.6605 55.8933 75.1765 55.8933H75.1764ZM88.6553 44.3201C90.185 44.3201 91.4131 44.731 92.344 45.5526C93.275 46.3786 93.7383 47.6985 93.7383 49.5123V58.7431H89.8353V50.5002C89.8353 49.4906 89.6474 48.73 89.2759 48.2143C88.9043 47.7029 88.3231 47.4451 87.5277 47.4451C86.3345 47.4451 85.5171 47.8428 85.0846 48.6427C84.6474 49.4425 84.4288 50.5963 84.4288 52.1041V58.7431H80.5259V44.5824H83.5066L84.0354 46.4179H84.2496C84.5599 45.9241 84.9401 45.522 85.399 45.2161C85.8535 44.9101 86.3605 44.6829 86.9199 44.5386C87.4794 44.3945 88.0563 44.3201 88.6552 44.3201H88.6553ZM109.665 38.8132V47.7903C109.665 48.3323 109.643 48.8742 109.604 49.4163C109.56 49.9584 109.512 50.5002 109.459 51.0421H109.512C109.778 50.6706 110.049 50.3035 110.325 49.9408C110.604 49.578 110.902 49.2284 111.216 48.8875L115.224 44.5825H119.629L113.943 50.7233L119.975 58.7433H115.469L111.343 53.0048L109.665 54.3378V58.7433H105.762V38.8135H109.665V38.8132Z" fill="#111A58"/>
<path fill-rule="evenodd" clip-rule="evenodd" d="M51.1724 4.17369C29.5198 4.17369 7.58038 17.6647 1.94198 37.5139C8.03476 16.0647 27.7662 0.351791 51.1724 0.351791C79.4345 0.351791 102.345 23.2625 102.345 51.5244C102.345 79.7863 79.4345 102.697 51.1724 102.697C22.9106 102.697 -0.00012207 79.7863 -0.00012207 51.5244C-0.00012207 77.6754 25.0215 95.9022 51.1724 95.9022C77.3235 95.9022 96.8243 77.6754 96.8243 51.5244C96.8243 25.3734 77.3235 4.17369 51.1724 4.17369Z" fill="url(#paint0_linear_1621_176)"/>
<path fill-rule="evenodd" clip-rule="evenodd" d="M131.268 65.0104V32.9276H133.031V65.0104H131.268Z" fill="#111A58"/>
<path d="M149.669 32.545V35.6714C150.486 35.74 151.19 35.9454 151.783 36.2903C152.375 36.6353 152.832 37.1025 153.155 37.6872C153.478 38.2743 153.639 38.9642 153.639 39.7543C153.639 40.5371 153.485 41.2221 153.174 41.8117C152.864 42.4013 152.414 42.8686 151.822 43.2158C151.232 43.5657 150.515 43.7736 149.669 43.8471V47.2229H148.294V43.8471C147.482 43.7785 146.777 43.573 146.185 43.2282C145.593 42.8832 145.136 42.416 144.811 41.8264C144.485 41.2368 144.324 40.547 144.324 39.7543C144.324 38.9593 144.475 38.2669 144.784 37.6774C145.092 37.0878 145.544 36.623 146.139 36.2805C146.733 35.9357 147.462 35.7351 148.321 35.6714V32.545H149.669H149.669ZM148.321 36.8261C147.758 36.8775 147.291 37.0292 146.922 37.2763C146.55 37.5234 146.273 37.856 146.09 38.2767C145.904 38.6951 145.814 39.1893 145.814 39.7544C145.814 40.3268 145.904 40.8234 146.09 41.2418C146.273 41.6626 146.55 41.9953 146.922 42.2423C147.291 42.4895 147.758 42.6411 148.321 42.6998V36.8262V36.8261ZM149.669 36.8408V42.6996C150.234 42.6361 150.699 42.482 151.066 42.2324C151.435 41.9805 151.709 41.6478 151.89 41.232C152.071 40.8136 152.164 40.3219 152.164 39.7543C152.164 38.903 151.954 38.2253 151.535 37.7263C151.117 37.2272 150.496 36.9312 149.669 36.8407V36.8408ZM162.546 39.7445C162.546 40.3928 162.463 40.9726 162.292 41.4814C162.123 41.9903 161.876 42.4185 161.556 42.7706C161.233 43.1205 160.844 43.3871 160.389 43.5707C159.936 43.7542 159.422 43.8471 158.85 43.8471C158.314 43.8471 157.823 43.754 157.377 43.5707C156.93 43.3871 156.543 43.1205 156.218 42.7706C155.895 42.4185 155.643 41.9903 155.467 41.4814C155.288 40.9726 155.2 40.3928 155.2 39.7445C155.2 38.881 155.349 38.1446 155.645 37.5356C155.941 36.9288 156.365 36.4641 156.918 36.1484C157.47 35.8304 158.128 35.6714 158.892 35.6714C159.618 35.6714 160.257 35.8304 160.805 36.151C161.355 36.4715 161.783 36.9338 162.089 37.5406C162.395 38.1472 162.546 38.8812 162.546 39.7446V39.7445ZM156.678 39.7445C156.678 40.3513 156.756 40.8724 156.91 41.3076C157.067 41.7456 157.304 42.0807 157.627 42.3132C157.95 42.548 158.366 42.6654 158.877 42.6654C159.378 42.6654 159.792 42.548 160.117 42.3132C160.443 42.0807 160.682 41.7456 160.834 41.3076C160.988 40.8722 161.064 40.3511 161.064 39.7445C161.064 39.1427 160.988 38.629 160.834 38.1985C160.682 37.7704 160.443 37.4402 160.122 37.2126C159.799 36.9828 159.378 36.8677 158.862 36.8677C158.109 36.8677 157.556 37.1197 157.204 37.6237C156.854 38.1278 156.678 38.8345 156.678 39.7446V39.7445ZM165.988 35.8181V39.0595H170.037V35.8181H171.471V43.7002H170.037V40.2215H165.988V43.7002H164.54V35.8181H165.988ZM180.057 35.8035V42.5382H181.197V46.4597H179.835V43.7002H174.316V46.4597H172.975V42.5382H173.606C174.032 41.9412 174.386 41.2784 174.668 40.5518C174.949 39.8228 175.167 39.0546 175.319 38.2498C175.473 37.445 175.561 36.6304 175.585 35.8035H180.057H180.057ZM178.646 36.9287H176.84C176.786 37.5966 176.686 38.2717 176.534 38.9493C176.385 39.627 176.19 40.2753 175.95 40.8917C175.713 41.5083 175.429 42.0561 175.106 42.5381H178.646V36.9287V36.9287ZM193.275 35.8181V43.7002H191.826V36.9998H187.964V43.7002H186.516V35.8181H193.275V35.8181ZM202.634 39.7445C202.634 40.3928 202.551 40.9726 202.38 41.4814C202.211 41.9903 201.964 42.4185 201.644 42.7706C201.321 43.1205 200.932 43.3871 200.477 43.5707C200.024 43.7542 199.51 43.8471 198.938 43.8471C198.402 43.8471 197.91 43.754 197.465 43.5707C197.018 43.3871 196.631 43.1205 196.306 42.7706C195.983 42.4185 195.731 41.9903 195.555 41.4814C195.376 40.9726 195.288 40.3928 195.288 39.7445C195.288 38.881 195.437 38.1446 195.733 37.5356C196.029 36.9288 196.452 36.4641 197.005 36.1484C197.558 35.8304 198.216 35.6714 198.979 35.6714C199.706 35.6714 200.344 35.8304 200.893 36.151C201.443 36.4715 201.871 36.9338 202.177 37.5406C202.483 38.1472 202.634 38.8812 202.634 39.7446V39.7445ZM196.766 39.7445C196.766 40.3513 196.844 40.8724 196.998 41.3076C197.154 41.7456 197.392 42.0807 197.715 42.3132C198.038 42.548 198.454 42.6654 198.965 42.6654C199.466 42.6654 199.88 42.548 200.205 42.3132C200.53 42.0807 200.77 41.7456 200.922 41.3076C201.076 40.8722 201.152 40.3511 201.152 39.7445C201.152 39.1427 201.076 38.629 200.922 38.1985C200.77 37.7704 200.53 37.4402 200.21 37.2126C199.887 36.9828 199.466 36.8677 198.95 36.8677C198.197 36.8677 197.644 37.1197 197.291 37.6237C196.942 38.1278 196.766 38.8345 196.766 39.7446V39.7445ZM210.749 35.8036V42.5383H211.889V46.4598H210.526V43.7003H205.007V46.4598H203.666V42.5383H204.298C204.723 41.9413 205.078 41.2785 205.359 40.5519C205.641 39.823 205.858 39.0547 206.01 38.2499C206.164 37.4451 206.252 36.6305 206.277 35.8036H210.749H210.749ZM209.337 36.9288H207.532C207.478 37.5968 207.378 38.2718 207.226 38.9495C207.077 39.6271 206.881 40.2754 206.641 40.8918C206.404 41.5084 206.12 42.0563 205.797 42.5382H209.337V36.9288V36.9288ZM219.514 35.8036V42.5383H220.654V46.4598H219.291V43.7003H213.772V46.4598H212.432V42.5383H213.063C213.488 41.9413 213.843 41.2785 214.125 40.5519C214.406 39.823 214.624 39.0547 214.775 38.2499C214.929 37.4451 215.017 36.6305 215.042 35.8036H219.514H219.514ZM218.102 36.9288H216.297C216.243 37.5968 216.143 38.2718 215.991 38.9495C215.842 39.6271 215.646 40.2754 215.406 40.8918C215.169 41.5084 214.885 42.0563 214.562 42.5382H218.102V36.9288V36.9288ZM225.255 35.6714C225.943 35.6714 226.532 35.8182 227.024 36.1117C227.516 36.4054 227.895 36.8187 228.157 37.3544C228.421 37.8877 228.551 38.5188 228.551 39.243V40.0601H223.191C223.205 40.9041 223.423 41.5523 223.844 42.0024C224.262 42.4526 224.854 42.6776 225.613 42.6776C226.114 42.6776 226.562 42.6312 226.953 42.5359C227.345 42.4405 227.751 42.2985 228.172 42.1126V43.3235C227.775 43.5045 227.376 43.639 226.978 43.7222C226.579 43.8055 226.102 43.8471 225.549 43.8471C224.783 43.8471 224.113 43.6954 223.538 43.3895C222.963 43.0837 222.516 42.6312 222.195 42.0319C221.875 41.4325 221.713 40.6936 221.713 39.8155C221.713 38.947 221.86 38.2058 222.151 37.5868C222.442 36.968 222.853 36.4958 223.384 36.1656C223.915 35.8353 224.539 35.6714 225.256 35.6714H225.255ZM225.248 36.7894C224.663 36.7894 224.196 36.9777 223.842 37.357C223.489 37.7362 223.281 38.2792 223.22 38.9837H227.102C227.1 38.5508 227.029 38.1693 226.897 37.8413C226.762 37.5111 226.559 37.2543 226.29 37.0683C226.021 36.8824 225.674 36.7894 225.248 36.7894ZM234.392 35.6714C235.352 35.6714 236.12 36.0116 236.697 36.6917C237.272 37.3717 237.561 38.3868 237.561 39.7373C237.561 40.6351 237.429 41.3887 237.162 41.9978C236.898 42.6044 236.523 43.0667 236.044 43.3775C235.564 43.6906 235.002 43.8472 234.356 43.8472C233.95 43.8472 233.595 43.7933 233.289 43.6857C232.984 43.578 232.722 43.4362 232.504 43.2551C232.286 43.0765 232.103 42.8832 231.956 42.6777H231.863C231.883 42.8638 231.902 43.0814 231.924 43.326C231.944 43.5731 231.956 43.7933 231.956 43.9891V47.2084H230.508V35.8182H231.689L231.885 36.9485H231.956C232.103 36.7137 232.286 36.4983 232.504 36.305C232.722 36.1117 232.986 35.9576 233.297 35.8427C233.607 35.7276 233.972 35.6714 234.393 35.6714H234.392ZM234.062 36.8604C233.556 36.8604 233.152 36.9606 232.849 37.1587C232.545 37.3568 232.323 37.6504 232.181 38.0418C232.039 38.4332 231.966 38.9249 231.956 39.5169V39.7444C231.956 40.3755 232.022 40.9064 232.157 41.3369C232.289 41.7701 232.511 42.0978 232.822 42.3253C233.133 42.5504 233.551 42.6654 234.077 42.6654C234.527 42.6654 234.899 42.543 235.197 42.2984C235.498 42.0563 235.718 41.7138 235.865 41.2686C236.01 40.8257 236.083 40.3095 236.083 39.7225C236.083 38.8321 235.919 38.1324 235.589 37.6236C235.259 37.1147 234.75 36.8604 234.062 36.8604V36.8604ZM249.32 35.8181L246.132 39.6369L249.601 43.7002H247.994L244.648 39.7029V43.7002H243.307V39.7029L239.968 43.7002H238.363L241.832 39.6369L238.635 35.8181H240.183L243.307 39.6442V35.8181H244.648V39.6442L247.779 35.8181H249.32H249.32ZM255.612 35.8181H257.197L253.865 39.6149L257.469 43.7002H255.805L252.31 39.7029V43.7002H250.861V35.8181H252.31V39.6442L255.612 35.8181H255.612ZM260.206 35.8181V40.3095C260.206 40.4197 260.204 40.5616 260.196 40.7353C260.189 40.909 260.179 41.0924 260.167 41.2833C260.155 41.474 260.145 41.6526 260.135 41.819C260.125 41.9853 260.116 42.115 260.106 42.2056L264.243 35.8182H265.999V43.7003H264.637V39.2945C264.637 39.1183 264.639 38.9006 264.646 38.6389C264.654 38.3797 264.666 38.1276 264.68 37.8854C264.693 37.6431 264.702 37.4549 264.707 37.3204L260.588 43.7003H258.824V35.8182H260.206L260.206 35.8181ZM275.452 43.8471C274.725 43.8471 274.089 43.7002 273.546 43.4091C273.001 43.118 272.58 42.6753 272.279 42.0759C271.98 41.4765 271.831 40.7182 271.831 39.8034C271.831 38.8468 271.993 38.0664 272.313 37.4573C272.634 36.8482 273.076 36.398 273.641 36.1069C274.209 35.8159 274.857 35.6714 275.586 35.6714C276.017 35.6714 276.42 35.7155 276.795 35.8012C277.169 35.8869 277.485 35.9945 277.737 36.124L277.309 37.291C277.039 37.1858 276.753 37.0928 276.445 37.012C276.137 36.9314 275.843 36.8896 275.567 36.8896C275.06 36.8896 274.639 36.9998 274.309 37.2224C273.976 37.4451 273.727 37.7704 273.558 38.1985C273.392 38.629 273.309 39.1574 273.309 39.7886C273.309 40.3978 273.392 40.9138 273.556 41.3371C273.72 41.7604 273.964 42.0809 274.287 42.2985C274.61 42.5187 275.011 42.6288 275.493 42.6288C275.919 42.6288 276.301 42.5799 276.641 42.4844C276.981 42.389 277.294 42.2667 277.58 42.1198V43.3871C277.304 43.5413 276.998 43.6562 276.663 43.732C276.328 43.8079 275.924 43.8471 275.452 43.8471V43.8471ZM285.112 36.9875H282.519V43.7002H281.086V36.9875H278.519V35.8181H285.112V36.9875ZM289.67 35.6713C290.646 35.6713 291.375 35.8867 291.857 36.3196C292.339 36.7526 292.581 37.4327 292.581 38.3646V43.7001H291.549L291.27 42.5576H291.211C290.991 42.8438 290.763 43.0811 290.524 43.2743C290.284 43.4652 290.01 43.6072 289.697 43.7025C289.384 43.7979 289.002 43.847 288.552 43.847C288.075 43.847 287.649 43.7613 287.277 43.59C286.903 43.4163 286.612 43.1595 286.399 42.812C286.186 42.4672 286.081 42.0268 286.081 41.4911C286.081 40.6912 286.389 40.082 287.003 39.6662C287.62 39.2527 288.554 39.0252 289.807 38.9861L291.169 38.9299V38.4847C291.169 37.8658 291.032 37.4303 290.756 37.1782C290.482 36.9238 290.098 36.7966 289.606 36.7966C289.2 36.7966 288.811 36.8553 288.437 36.9727C288.065 37.0902 287.708 37.2297 287.363 37.3911L286.903 36.3442C287.277 36.1533 287.701 35.9943 288.175 35.8648C288.652 35.7351 289.149 35.6714 289.67 35.6714V35.6713ZM291.155 39.8766L290.051 39.9254C289.139 39.9597 288.495 40.1114 288.126 40.3804C287.757 40.6496 287.571 41.0238 287.571 41.5057C287.571 41.9265 287.698 42.2322 287.95 42.4279C288.205 42.6236 288.537 42.7215 288.953 42.7215C289.594 42.7215 290.12 42.5405 290.533 42.1809C290.947 41.8214 291.155 41.2879 291.155 40.5835V39.8765L291.155 39.8766ZM298.866 35.6713C299.825 35.6713 300.593 36.0115 301.17 36.6916C301.745 37.3715 302.034 38.3866 302.034 39.7372C302.034 40.635 301.902 41.3885 301.635 41.9976C301.371 42.6043 300.996 43.0666 300.517 43.3774C300.038 43.6905 299.475 43.8471 298.829 43.8471C298.423 43.8471 298.068 43.7932 297.763 43.6856C297.457 43.5779 297.195 43.436 296.977 43.255C296.76 43.0764 296.576 42.8831 296.429 42.6776H296.336C296.356 42.8637 296.375 43.0813 296.397 43.3259C296.417 43.573 296.429 43.7932 296.429 43.9889V47.2082H294.981V35.8181H296.163L296.358 36.9484H296.429C296.576 36.7136 296.76 36.4982 296.977 36.3049C297.195 36.1116 297.459 35.9575 297.77 35.8425C298.081 35.7275 298.445 35.6713 298.866 35.6713H298.866ZM298.535 36.8602C298.029 36.8602 297.625 36.9605 297.322 37.1585C297.019 37.3567 296.796 37.6502 296.654 38.0417C296.512 38.433 296.439 38.9247 296.429 39.5168V39.7443C296.429 40.3754 296.495 40.9063 296.63 41.3368C296.762 41.77 296.984 42.0976 297.295 42.3252C297.606 42.5503 298.024 42.6652 298.55 42.6652C299 42.6652 299.372 42.5428 299.67 42.2983C299.971 42.0561 300.192 41.7137 300.338 41.2685C300.483 40.8256 300.556 40.3094 300.556 39.7223C300.556 38.832 300.392 38.1323 300.062 37.6234C299.732 37.1146 299.223 36.8602 298.535 36.8602V36.8602ZM309.715 36.9874H307.122V43.7001H305.688V36.9874H303.122V35.8179H309.715V36.9874ZM314.273 35.6712C315.249 35.6712 315.978 35.8866 316.46 36.3194C316.942 36.7525 317.184 37.4326 317.184 38.3645V43.6999H316.151L315.873 42.5575H315.814C315.594 42.8437 315.366 43.0809 315.126 43.2742C314.887 43.465 314.613 43.607 314.3 43.7024C313.986 43.7977 313.605 43.8468 313.155 43.8468C312.678 43.8468 312.252 43.7611 311.88 43.5899C311.506 43.4162 311.215 43.1594 311.002 42.8119C310.789 42.4671 310.684 42.0266 310.684 41.491C310.684 40.6911 310.992 40.0819 311.606 39.666C312.223 39.2525 313.157 39.0251 314.41 38.9859L315.772 38.9298V38.4846C315.772 37.8657 315.635 37.4302 315.359 37.1781C315.085 36.9236 314.701 36.7965 314.209 36.7965C313.803 36.7965 313.414 36.8552 313.04 36.9726C312.668 37.0901 312.311 37.2295 311.966 37.391L311.506 36.344C311.88 36.1532 312.303 35.9942 312.778 35.8647C313.255 35.735 313.752 35.6713 314.273 35.6713V35.6712ZM315.758 39.8765L314.654 39.9253C313.742 39.9596 313.098 40.1112 312.729 40.3803C312.36 40.6494 312.174 41.0236 312.174 41.5056C312.174 41.9264 312.301 42.232 312.553 42.4278C312.807 42.6235 313.14 42.7214 313.556 42.7214C314.197 42.7214 314.723 42.5404 315.136 42.1808C315.55 41.8212 315.758 41.2878 315.758 40.5834V39.8763L315.758 39.8765ZM326.343 35.8178V43.6999H324.895V36.9995H321.032V43.6999H319.584V35.8178H326.343ZM335.702 39.7443C335.702 40.3925 335.619 40.9724 335.448 41.4812C335.279 41.99 335.032 42.4182 334.712 42.7704C334.389 43.1202 334 43.3868 333.545 43.5704C333.092 43.7539 332.579 43.8468 332.006 43.8468C331.47 43.8468 330.979 43.7538 330.533 43.5704C330.086 43.3868 329.699 43.1202 329.374 42.7704C329.051 42.4182 328.799 41.99 328.623 41.4812C328.444 40.9724 328.356 40.3925 328.356 39.7443C328.356 38.8808 328.505 38.1444 328.801 37.5353C329.097 36.9285 329.521 36.4639 330.074 36.1482C330.626 35.8302 331.284 35.6712 332.048 35.6712C332.774 35.6712 333.413 35.8302 333.961 36.1508C334.511 36.4712 334.939 36.9336 335.245 37.5403C335.551 38.147 335.702 38.8809 335.702 39.7444V39.7443ZM329.834 39.7443C329.834 40.351 329.912 40.8721 330.066 41.3074C330.223 41.7454 330.46 42.0805 330.783 42.313C331.106 42.5477 331.522 42.6651 332.033 42.6651C332.535 42.6651 332.948 42.5477 333.273 42.313C333.599 42.0805 333.838 41.7454 333.99 41.3074C334.144 40.872 334.22 40.3509 334.22 39.7443C334.22 39.1425 334.144 38.6288 333.99 38.1983C333.838 37.7702 333.599 37.44 333.278 37.2124C332.955 36.9825 332.535 36.8675 332.018 36.8675C331.265 36.8675 330.712 37.1195 330.36 37.6234C330.01 38.1275 329.834 38.8343 329.834 39.7444V39.7443ZM344.155 37.8166C344.155 38.2936 344.013 38.6728 343.731 38.9542C343.45 39.2331 343.071 39.419 342.599 39.5095V39.5682C343.11 39.6342 343.541 39.8154 343.893 40.1088C344.243 40.4024 344.419 40.8256 344.419 41.3785C344.419 41.8335 344.309 42.2347 344.086 42.582C343.863 42.932 343.516 43.2035 343.044 43.4015C342.569 43.5997 341.95 43.6999 341.187 43.6999H337.696V35.8178H341.165C341.747 35.8178 342.263 35.8815 342.709 36.0112C343.156 36.1384 343.509 36.3487 343.766 36.6399C344.025 36.9285 344.155 37.3226 344.155 37.8166V37.8166ZM342.922 41.3516C342.922 40.9258 342.758 40.6201 342.435 40.4317C342.109 40.2433 341.635 40.1479 341.014 40.1479H339.145V42.5968H341.043C341.64 42.5968 342.102 42.5015 342.43 42.3105C342.758 42.1197 342.922 41.7991 342.922 41.3516V41.3516ZM342.692 37.9609C342.692 37.6258 342.565 37.3713 342.313 37.2025C342.058 37.0337 341.652 36.9506 341.094 36.9506H339.145V39.03H340.872C341.474 39.03 341.926 38.9444 342.232 38.7708C342.538 38.5972 342.692 38.328 342.692 37.961V37.9609ZM146.163 56.9812V61.4726C146.163 61.5827 146.161 61.7245 146.153 61.8983C146.146 62.0719 146.136 62.2555 146.124 62.4462C146.112 62.6369 146.102 62.8155 146.092 62.982C146.082 63.1484 146.073 63.278 146.063 63.3686L150.2 56.9813H151.956V64.8633H150.593V60.4575C150.593 60.2812 150.596 60.0636 150.603 59.8019C150.611 59.5426 150.623 59.2906 150.637 59.0484C150.65 58.8061 150.659 58.6179 150.664 58.4833L146.545 64.8633H144.781V56.9813H146.163L146.163 56.9812ZM163.909 58.1505H161.316V64.8632H159.882V58.1505H157.316V56.9812H163.909V58.1505ZM168.54 56.8343C169.227 56.8343 169.817 56.9812 170.309 57.2746C170.8 57.5682 171.179 57.9816 171.441 58.5172C171.705 59.0506 171.835 59.6817 171.835 60.4058V61.2229H166.475C166.49 62.0669 166.708 62.7152 167.128 63.1653C167.547 63.6155 168.139 63.8404 168.897 63.8404C169.399 63.8404 169.846 63.7941 170.238 63.6987C170.629 63.6033 171.035 63.4615 171.456 63.2754V64.4864C171.06 64.6673 170.661 64.8019 170.262 64.8851C169.863 64.9683 169.386 65.0099 168.834 65.0099C168.068 65.0099 167.398 64.8583 166.823 64.5524C166.248 64.2466 165.8 63.7941 165.48 63.1948C165.159 62.5953 164.998 61.8565 164.998 60.9783C164.998 60.11 165.144 59.3687 165.436 58.7497C165.727 58.1308 166.138 57.6587 166.668 57.3284C167.199 56.9982 167.823 56.8343 168.54 56.8343H168.54ZM168.532 57.9522C167.948 57.9522 167.48 58.1406 167.126 58.5198C166.774 58.899 166.566 59.442 166.504 60.1466H170.387C170.384 59.7136 170.313 59.3321 170.181 59.0042C170.047 58.6739 169.844 58.4171 169.575 58.2312C169.305 58.0452 168.958 57.9522 168.532 57.9522ZM175.605 60.8291L172.926 56.981H174.565L176.507 59.8846L178.45 56.981H180.077L177.391 60.8291L180.221 64.863H178.579L176.507 61.7807L174.423 64.863H172.796L175.605 60.8291H175.605ZM183.125 56.981V60.2225H187.173V56.981H188.607V64.863H187.173V61.3845H183.125V64.863H181.677V56.981H183.125ZM197.974 60.9073C197.974 61.5556 197.891 62.1355 197.72 62.6443C197.551 63.1531 197.304 63.5813 196.983 63.9335C196.66 64.2833 196.272 64.5499 195.816 64.7335C195.364 64.917 194.85 65.0099 194.278 65.0099C193.742 65.0099 193.25 64.9169 192.805 64.7335C192.357 64.5499 191.971 64.2833 191.645 63.9335C191.323 63.5813 191.07 63.1531 190.894 62.6443C190.716 62.1355 190.628 61.5556 190.628 60.9073C190.628 60.0439 190.777 59.3075 191.073 58.6984C191.369 58.0916 191.792 57.627 192.345 57.3113C192.898 56.9933 193.556 56.8343 194.319 56.8343C195.046 56.8343 195.684 56.9933 196.232 57.3139C196.783 57.6343 197.211 58.0966 197.517 58.7034C197.822 59.3101 197.974 60.044 197.974 60.9075V60.9073ZM192.105 60.9073C192.105 61.5141 192.184 62.0352 192.338 62.4705C192.494 62.9084 192.731 63.2436 193.054 63.476C193.377 63.7108 193.793 63.8282 194.305 63.8282C194.806 63.8282 195.219 63.7108 195.545 63.476C195.87 63.2436 196.11 62.9084 196.262 62.4705C196.416 62.0351 196.492 61.514 196.492 60.9073C196.492 60.3056 196.416 59.7919 196.262 59.3614C196.11 58.9333 195.87 58.603 195.55 58.3755C195.227 58.1456 194.806 58.0305 194.29 58.0305C193.536 58.0305 192.983 58.2826 192.631 58.7865C192.281 59.2906 192.105 59.9975 192.105 60.9075V60.9073ZM206.181 64.863H204.726V58.143H202.434C202.338 59.3686 202.218 60.4181 202.074 61.2889C201.932 62.1574 201.751 62.8667 201.533 63.4173C201.316 63.9652 201.052 64.3689 200.741 64.6257C200.43 64.8826 200.056 65.0098 199.616 65.0098C199.459 65.0098 199.31 65 199.173 64.978C199.033 64.9559 198.913 64.9241 198.813 64.88V63.7621C198.887 63.7915 198.962 63.8111 199.043 63.8233C199.124 63.8356 199.209 63.8403 199.302 63.8403C199.498 63.8403 199.677 63.7621 199.843 63.6007C200.007 63.4392 200.158 63.1872 200.293 62.8447C200.43 62.5023 200.555 62.0619 200.667 61.5261C200.78 60.988 200.878 60.3421 200.963 59.5887C201.049 58.8328 201.127 57.9645 201.193 56.981H206.181V64.863H206.181ZM215.534 60.9073C215.534 61.5556 215.451 62.1355 215.279 62.6443C215.111 63.1531 214.863 63.5813 214.543 63.9335C214.22 64.2833 213.831 64.5499 213.376 64.7335C212.923 64.917 212.41 65.0099 211.837 65.0099C211.302 65.0099 210.81 64.9169 210.365 64.7335C209.917 64.5499 209.53 64.2833 209.205 63.9335C208.882 63.5813 208.63 63.1531 208.454 62.6443C208.275 62.1355 208.187 61.5556 208.187 60.9073C208.187 60.0439 208.337 59.3075 208.633 58.6984C208.929 58.0916 209.352 57.627 209.905 57.3113C210.458 56.9933 211.116 56.8343 211.879 56.8343C212.605 56.8343 213.244 56.9933 213.792 57.3139C214.342 57.6343 214.77 58.0966 215.076 58.7034C215.382 59.3101 215.534 60.044 215.534 60.9075V60.9073ZM209.665 60.9073C209.665 61.5141 209.743 62.0352 209.897 62.4705C210.054 62.9084 210.291 63.2436 210.614 63.476C210.937 63.7108 211.353 63.8282 211.864 63.8282C212.366 63.8282 212.779 63.7108 213.105 63.476C213.43 63.2436 213.67 62.9084 213.821 62.4705C213.975 62.0351 214.051 61.514 214.051 60.9073C214.051 60.3056 213.975 59.7919 213.821 59.3614C213.67 58.9333 213.43 58.603 213.11 58.3755C212.787 58.1456 212.366 58.0305 211.849 58.0305C211.096 58.0305 210.543 58.2826 210.191 58.7865C209.841 59.2906 209.665 59.9975 209.665 60.9075V60.9073ZM222.486 56.981V58.1504H218.976V64.863H217.527V56.981H222.486ZM225.41 56.981V61.4725C225.41 61.5825 225.407 61.7244 225.4 61.8982C225.392 62.0718 225.383 62.2554 225.37 62.4461C225.358 62.6368 225.348 62.8154 225.339 62.9819C225.329 63.1482 225.319 63.2779 225.309 63.3684L229.446 56.9812H231.202V64.8632H229.84V60.4574C229.84 60.2811 229.842 60.0635 229.85 59.8018C229.857 59.5425 229.869 59.2905 229.884 59.0482C229.896 58.806 229.906 58.6177 229.911 58.4832L225.791 64.8632H224.027V56.9812H225.409L225.41 56.981ZM234.928 56.981V59.8261C234.928 60.2836 235.051 60.6212 235.298 60.8365C235.542 61.0542 235.897 61.1618 236.362 61.1618C236.839 61.1618 237.274 61.0934 237.668 60.9539C238.062 60.8169 238.461 60.6285 238.862 60.3961V56.981H240.303V64.863H238.862V61.4333C238.446 61.6878 238.025 61.8932 237.597 62.0548C237.169 62.2137 236.665 62.2945 236.08 62.2945C235.263 62.2945 234.627 62.0842 234.172 61.6658C233.715 61.2449 233.487 60.6603 233.487 59.9068V56.981H234.928H234.928ZM245.851 56.8341C246.539 56.8341 247.128 56.981 247.62 57.2744C248.112 57.5681 248.491 57.9815 248.753 58.5171C249.017 59.0504 249.146 59.6816 249.146 60.4057V61.2228H243.787C243.801 62.0668 244.019 62.715 244.44 63.1651C244.858 63.6153 245.45 63.8403 246.208 63.8403C246.71 63.8403 247.158 63.7939 247.549 63.6986C247.94 63.6032 248.347 63.4614 248.767 63.2753V64.4863C248.371 64.6672 247.972 64.8018 247.574 64.8849C247.175 64.9682 246.698 65.0098 246.145 65.0098C245.379 65.0098 244.709 64.8581 244.134 64.5522C243.559 64.2465 243.111 63.7939 242.791 63.1946C242.471 62.5952 242.309 61.8564 242.309 60.9782C242.309 60.1099 242.456 59.3686 242.747 58.7496C243.038 58.1307 243.449 57.6586 243.98 57.3283C244.511 56.9981 245.134 56.8341 245.851 56.8341H245.851ZM245.844 57.9521C245.259 57.9521 244.792 58.1405 244.437 58.5197C244.085 58.8989 243.877 59.4419 243.816 60.1465H247.698C247.696 59.7135 247.625 59.332 247.493 59.004C247.358 58.6738 247.155 58.417 246.886 58.2311C246.617 58.0451 246.27 57.9521 245.844 57.9521ZM254.279 65.0098C253.552 65.0098 252.916 64.8629 252.373 64.5718C251.828 64.2807 251.407 63.838 251.106 63.2387C250.808 62.6393 250.658 61.881 250.658 60.9661C250.658 60.0095 250.82 59.2292 251.14 58.6201C251.461 58.011 251.904 57.5608 252.469 57.2697C253.036 56.9786 253.684 56.8341 254.413 56.8341C254.844 56.8341 255.248 56.8782 255.622 56.9639C255.996 57.0496 256.312 57.1572 256.564 57.2867L256.136 58.4537C255.866 58.3486 255.58 58.2557 255.272 58.1747C254.964 58.0941 254.67 58.0523 254.394 58.0523C253.887 58.0523 253.467 58.1625 253.136 58.3852C252.804 58.6078 252.554 58.9332 252.385 59.3612C252.219 59.7917 252.136 60.3202 252.136 60.9513C252.136 61.5605 252.219 62.0767 252.383 62.5C252.547 62.9231 252.791 63.2436 253.114 63.4614C253.437 63.6814 253.839 63.7915 254.32 63.7915C254.746 63.7915 255.128 63.7426 255.468 63.6472C255.808 63.5518 256.121 63.4294 256.407 63.2826V64.5498C256.131 64.704 255.825 64.819 255.49 64.8947C255.155 64.9706 254.751 65.0098 254.279 65.0098V65.0098ZM263.015 56.9809H264.6L261.268 60.7776L264.871 64.8629H263.208L259.712 60.8656V64.8629H258.264V56.9809H259.712V60.807L263.015 56.9809H263.015ZM273.128 60.9072C273.128 61.5555 273.045 62.1353 272.873 62.6442C272.705 63.153 272.458 63.5812 272.137 63.9334C271.814 64.2832 271.425 64.5498 270.97 64.7334C270.518 64.9169 270.004 65.0098 269.431 65.0098C268.896 65.0098 268.404 64.9168 267.959 64.7334C267.511 64.5498 267.125 64.2832 266.799 63.9334C266.476 63.5812 266.224 63.153 266.048 62.6442C265.87 62.1353 265.781 61.5555 265.781 60.9072C265.781 60.0438 265.931 59.3074 266.227 58.6983C266.523 58.0915 266.946 57.6269 267.499 57.3112C268.052 56.9932 268.71 56.8341 269.473 56.8341C270.2 56.8341 270.838 56.9932 271.386 57.3137C271.936 57.6342 272.364 58.0965 272.67 58.7033C272.976 59.3099 273.128 60.0439 273.128 60.9073V60.9072ZM267.259 60.9072C267.259 61.514 267.337 62.0351 267.491 62.4703C267.648 62.9083 267.885 63.2435 268.208 63.4759C268.531 63.7107 268.947 63.8281 269.458 63.8281C269.96 63.8281 270.373 63.7107 270.699 63.4759C271.024 63.2435 271.264 62.9083 271.415 62.4703C271.569 62.035 271.645 61.5139 271.645 60.9072C271.645 60.3055 271.569 59.7917 271.415 59.3612C271.264 58.9332 271.024 58.6029 270.703 58.3754C270.381 58.1455 269.96 58.0304 269.444 58.0304C268.69 58.0304 268.137 58.2825 267.785 58.7864C267.435 59.2905 267.259 59.9974 267.259 60.9073V60.9072ZM280.08 56.9809V58.1503H276.57V64.8629H275.121V56.9809H280.08ZM288.523 60.9072C288.523 61.5555 288.439 62.1353 288.268 62.6442C288.099 63.153 287.852 63.5812 287.532 63.9334C287.209 64.2832 286.82 64.5498 286.365 64.7334C285.912 64.9169 285.399 65.0098 284.826 65.0098C284.29 65.0098 283.799 64.9168 283.353 64.7334C282.906 64.5498 282.519 64.2832 282.194 63.9334C281.871 63.5812 281.619 63.153 281.443 62.6442C281.264 62.1353 281.176 61.5555 281.176 60.9072C281.176 60.0438 281.326 59.3074 281.621 58.6983C281.917 58.0915 282.341 57.6269 282.894 57.3112C283.446 56.9932 284.104 56.8341 284.868 56.8341C285.594 56.8341 286.233 56.9932 286.781 57.3137C287.331 57.6342 287.759 58.0965 288.065 58.7033C288.371 59.3099 288.523 60.0439 288.523 60.9073V60.9072ZM282.654 60.9072C282.654 61.514 282.732 62.0351 282.886 62.4703C283.043 62.9083 283.28 63.2435 283.603 63.4759C283.926 63.7107 284.342 63.8281 284.853 63.8281C285.355 63.8281 285.768 63.7107 286.093 63.4759C286.419 63.2435 286.658 62.9083 286.81 62.4703C286.964 62.035 287.04 61.5139 287.04 60.9072C287.04 60.3055 286.964 59.7917 286.81 59.3612C286.658 58.9332 286.419 58.6029 286.098 58.3754C285.775 58.1455 285.355 58.0304 284.838 58.0304C284.085 58.0304 283.532 58.2825 283.18 58.7864C282.83 59.2905 282.654 59.9974 282.654 60.9073V60.9072Z" fill="#111A58"/>
<path d="M293.907 60.1249C293.907 58.9924 294.025 58.026 294.26 57.2236C294.492 56.4237 294.859 55.7803 295.356 55.296C295.852 54.8092 296.498 54.4789 297.291 54.3028C297.878 54.1536 298.475 54.0264 299.079 53.9212C299.683 53.8161 300.283 53.7206 300.874 53.6349L301.097 54.8972C300.806 54.934 300.5 54.978 300.18 55.0294C299.859 55.0782 299.539 55.1296 299.218 55.1835C298.898 55.2349 298.595 55.2912 298.306 55.3474C298.015 55.4062 297.758 55.4648 297.535 55.526C297.11 55.6264 296.745 55.7999 296.444 56.0447C296.143 56.2869 295.908 56.6343 295.74 57.0819C295.568 57.5295 295.466 58.1094 295.427 58.8213H295.52C295.659 58.6207 295.847 58.4202 296.087 58.2171C296.324 58.014 296.613 57.8452 296.946 57.7107C297.281 57.5762 297.66 57.5101 298.086 57.5101C298.756 57.5101 299.319 57.6544 299.774 57.9406C300.231 58.2268 300.576 58.6354 300.813 59.1638C301.051 59.6922 301.168 60.3184 301.168 61.0449C301.168 61.9158 301.016 62.6448 300.713 63.2369C300.41 63.8265 299.987 64.2691 299.441 64.5651C298.896 64.8612 298.257 65.0104 297.528 65.0104C296.963 65.0104 296.459 64.9027 296.011 64.6875C295.564 64.4722 295.184 64.1566 294.871 63.7384C294.558 63.32 294.321 62.8061 294.155 62.202C293.991 61.5978 293.907 60.9055 293.907 60.125V60.1249ZM297.628 63.8287C298.049 63.8287 298.409 63.7382 298.714 63.5595C299.018 63.3786 299.253 63.0972 299.419 62.7083C299.585 62.3217 299.671 61.8129 299.671 61.1817C299.671 60.3964 299.524 59.7825 299.233 59.3348C298.942 58.8871 298.47 58.6645 297.821 58.6645C297.415 58.6645 297.046 58.7501 296.713 58.9263C296.38 59.0999 296.102 59.3055 295.872 59.5451C295.642 59.7849 295.478 59.9977 295.378 60.1837C295.378 60.6436 295.412 61.0887 295.48 61.5218C295.551 61.9549 295.666 62.3464 295.833 62.6936C295.996 63.0435 296.226 63.3198 296.52 63.5228C296.814 63.7259 297.183 63.8286 297.628 63.8286L297.628 63.8287ZM304.542 56.9815V61.473C304.542 61.583 304.539 61.7249 304.532 61.8987C304.525 62.0723 304.515 62.2559 304.502 62.4466C304.49 62.6373 304.48 62.8159 304.471 62.9824C304.461 63.1487 304.451 63.2784 304.441 63.3689L308.578 56.9816H310.335V64.8636H308.972V60.4579C308.972 60.2816 308.974 60.064 308.982 59.8023C308.989 59.543 309.001 59.291 309.016 59.0487C309.028 58.8065 309.038 58.6182 309.043 58.4837L304.923 64.8636H303.159V56.9816H304.541L304.542 56.9815ZM315.049 56.8346C315.631 56.8346 316.147 56.913 316.597 57.072C317.045 57.2285 317.397 57.4609 317.649 57.7691C317.904 58.0774 318.031 58.4588 318.031 58.9115C318.031 59.3837 317.896 59.7605 317.63 60.0443C317.361 60.3255 316.998 60.5285 316.539 60.6509V60.7169C316.864 60.8026 317.157 60.9224 317.422 61.0741C317.684 61.2283 317.894 61.4312 318.05 61.6905C318.209 61.9474 318.288 62.2702 318.288 62.6569C318.288 63.0947 318.163 63.4934 317.911 63.8506C317.662 64.2078 317.282 64.4915 316.773 64.6995C316.265 64.9075 315.614 65.0103 314.826 65.0103C314.444 65.0103 314.083 64.9906 313.74 64.9491C313.4 64.9099 313.089 64.8512 312.808 64.7728C312.529 64.697 312.284 64.6066 312.074 64.5013V63.2391C312.409 63.403 312.803 63.5447 313.26 63.6696C313.715 63.7943 314.21 63.8555 314.741 63.8555C315.142 63.8555 315.501 63.8139 315.822 63.7308C316.142 63.6475 316.397 63.5106 316.585 63.3197C316.773 63.1289 316.869 62.8793 316.869 62.5688C316.869 62.2825 316.786 62.0476 316.619 61.8616C316.45 61.6758 316.201 61.5387 315.868 61.4483C315.538 61.3577 315.115 61.3112 314.604 61.3112H313.601V60.2007H314.454C315.142 60.2007 315.685 60.1126 316.083 59.9389C316.482 59.7652 316.683 59.4666 316.683 59.0484C316.683 58.6887 316.534 58.4221 316.238 58.246C315.942 58.0697 315.504 57.9817 314.926 57.9817C314.511 57.9817 314.122 58.0258 313.762 58.1138C313.402 58.2019 313.028 58.3266 312.642 58.4905L312.16 57.3921C312.585 57.2112 313.035 57.0741 313.508 56.9787C313.98 56.8834 314.493 56.8343 315.049 56.8343L315.049 56.8346ZM321.607 56.9815V60.223H325.656V56.9815H327.09V64.8635H325.656V61.385H321.607V64.8635H320.159V56.9815H321.607ZM332.653 56.8346C333.34 56.8346 333.93 56.9815 334.421 57.2749C334.913 57.5686 335.292 57.9819 335.554 58.5176C335.818 59.0509 335.948 59.6821 335.948 60.4062V61.2233H330.588C330.603 62.0673 330.82 62.7155 331.241 63.1656C331.659 63.6158 332.252 63.8408 333.01 63.8408C333.511 63.8408 333.959 63.7944 334.35 63.6991C334.742 63.6037 335.148 63.4618 335.569 63.2758V64.4867C335.172 64.6677 334.774 64.8023 334.375 64.8854C333.976 64.9687 333.499 65.0103 332.946 65.0103C332.181 65.0103 331.51 64.8586 330.935 64.5527C330.36 64.247 329.913 63.7944 329.592 63.1951C329.272 62.5957 329.11 61.8568 329.11 60.9787C329.11 60.1104 329.257 59.3691 329.548 58.7501C329.839 58.1312 330.25 57.659 330.781 57.3288C331.312 56.9985 331.936 56.8346 332.653 56.8346H332.653ZM332.645 57.9526C332.06 57.9526 331.593 58.141 331.239 58.5202C330.886 58.8994 330.678 59.4424 330.617 60.147H334.5C334.497 59.714 334.426 59.3325 334.294 59.0045C334.16 58.6743 333.957 58.4175 333.687 58.2315C333.418 58.0456 333.071 57.9526 332.645 57.9526ZM341.08 65.0103C340.354 65.0103 339.718 64.8634 339.174 64.5723C338.629 64.2812 338.208 63.8385 337.907 63.2392C337.609 62.6398 337.46 61.8815 337.46 60.9666C337.46 60.01 337.621 59.2296 337.942 58.6205C338.262 58.0115 338.705 57.5612 339.27 57.2702C339.838 56.9791 340.486 56.8346 341.215 56.8346C341.645 56.8346 342.049 56.8787 342.423 56.9644C342.797 57.0501 343.113 57.1577 343.365 57.2872L342.937 58.4542C342.668 58.349 342.382 58.2561 342.073 58.1752C341.765 58.0946 341.472 58.0528 341.195 58.0528C340.689 58.0528 340.268 58.163 339.938 58.3856C339.605 58.6083 339.356 58.9337 339.187 59.3617C339.02 59.7922 338.937 60.3206 338.937 60.9518C338.937 61.561 339.02 62.0772 339.184 62.5005C339.348 62.9236 339.593 63.2441 339.916 63.4618C340.239 63.6819 340.64 63.792 341.122 63.792C341.548 63.792 341.929 63.7431 342.269 63.6477C342.609 63.5523 342.922 63.4299 343.208 63.2831V64.5503C342.932 64.7045 342.626 64.8194 342.291 64.8952C341.956 64.9711 341.552 65.0103 341.08 65.0103V65.0103ZM348.089 56.8345C349.065 56.8345 349.794 57.0499 350.276 57.4828C350.758 57.9158 351 58.5959 351 59.5278V64.8633H349.968L349.689 63.7209H349.63C349.41 64.007 349.182 64.2444 348.943 64.4375C348.703 64.6284 348.429 64.7704 348.116 64.8657C347.803 64.9611 347.421 65.0102 346.971 65.0102C346.494 65.0102 346.068 64.9245 345.696 64.7532C345.322 64.5797 345.031 64.3227 344.818 63.9753C344.605 63.6304 344.5 63.19 344.5 62.6543C344.5 61.8544 344.808 61.2452 345.422 60.8294C346.039 60.4159 346.973 60.1884 348.226 60.1493L349.589 60.0931V59.6479C349.589 59.029 349.451 58.5935 349.175 58.3415C348.901 58.087 348.517 57.9598 348.025 57.9598C347.619 57.9598 347.23 58.0186 346.856 58.1359C346.484 58.2534 346.127 58.3929 345.782 58.5543L345.322 57.5074C345.696 57.3167 346.12 57.1575 346.594 57.028C347.071 56.8983 347.568 56.8346 348.089 56.8346V56.8345ZM349.574 61.0398L348.47 61.0886C347.558 61.1229 346.915 61.2746 346.545 61.5436C346.176 61.8128 345.99 62.187 345.99 62.6689C345.99 63.0897 346.117 63.3955 346.369 63.5911C346.624 63.7868 346.956 63.8848 347.372 63.8848C348.013 63.8848 348.539 63.7037 348.953 63.3441C349.366 62.9846 349.574 62.4511 349.574 61.7467V61.0397L349.574 61.0398Z" fill="#111A58"/>
</g>
<defs>
<linearGradient id="paint0_linear_1621_176" x1="50.962" y1="0.351912" x2="-37.0634" y2="88.7983" gradientUnits="userSpaceOnUse">
<stop stop-color="#111A58"/>
<stop offset="1" stop-color="#111A58" stop-opacity="0"/>
</linearGradient>
<clipPath id="clip0_1621_176">
<rect width="351" height="102.345" fill="white" transform="translate(0 0.351791)"/>
</clipPath>
</defs>
</svg>
